<svg width="24" height="24" viewBox="0 0 24 24" fill="none" xmlns="http://www.w3.org/2000/svg"><path d="M17 3H15C14.1716 3 13.5 3.67157 13.5 4.5V7.5C13.5 8.32843 14.1716 9 15 9H17C17.8284 9 18.5 8.32843 18.5 7.5V4.5C18.5 3.67157 17.8284 3 17 3Z" stroke="#EFBB00" stroke-width="2"></path><path d="M6.645 4.64501L5.645 5.64501C5.59814 5.69149 5.56094 5.74679 5.53556 5.80772C5.51017 5.86865 5.4971 5.934 5.4971 6.00001C5.4971 6.06601 5.51017 6.13137 5.53556 6.1923C5.56094 6.25323 5.59814 6.30853 5.645 6.35501L6.645 7.35501C6.69172 7.40135 6.74713 7.43801 6.80805 7.46289C6.86897 7.48778 6.9342 7.50039 7 7.50001H8C8.09968 7.48979 8.19598 7.45813 8.28228 7.40721C8.36858 7.3563 8.44285 7.28732 8.5 7.20501C8.5406 7.27753 8.59683 7.3401 8.66461 7.38819C8.73239 7.43628 8.81002 7.46868 8.89188 7.48304C8.97374 7.49741 9.05777 7.49337 9.13787 7.47122C9.21798 7.44908 9.29215 7.40938 9.355 7.35501L9.5 7.20501C9.55763 7.28686 9.63202 7.3555 9.71823 7.40636C9.80444 7.45723 9.9005 7.48915 10 7.50001H12.5V4.50001H7C6.9342 4.49963 6.86897 4.51224 6.80805 4.53712C6.74713 4.56201 6.69172 4.59867 6.645 4.64501ZM22.695 14.04C22.695 14.04 15.675 11 15.61 11H10.645C10.2523 11.0051 9.87435 11.1501 9.57899 11.4089C9.28362 11.6677 9.09025 12.0233 9.03362 12.4119C8.97698 12.8005 9.06081 13.1966 9.27002 13.5289C9.47923 13.8612 9.80012 14.1081 10.175 14.225L13.27 15.155L11.895 16L2.805 14.68C2.58073 14.6477 2.35214 14.6641 2.13474 14.7279C1.91734 14.7917 1.71621 14.9016 1.545 15.05C1.34095 15.2328 1.18741 15.465 1.09917 15.7243C1.01094 15.9837 0.990975 16.2614 1.04121 16.5306C1.09145 16.7999 1.2102 17.0517 1.38601 17.2618C1.56183 17.4719 1.78878 17.6331 2.045 17.73C2.045 17.73 10.855 21 10.915 21H14.57C14.62 21 22.65 18.5 22.65 18.5C22.7554 18.467 22.8468 18.4001 22.9101 18.3096C22.9735 18.2192 23.0051 18.1103 23 18V14.5C22.9999 14.4019 22.971 14.3059 22.9167 14.2241C22.8625 14.1423 22.7854 14.0783 22.695 14.04Z" stroke="#EFBB00" stroke-width="2"></path></svg>