<svg width="24" height="24" viewBox="0 0 24 24" fill="none" xmlns="http://www.w3.org/2000/svg"><path d="M21 10.6102C20.9969 9.77506 20.7162 8.96447 20.202 8.30517C19.6878 7.64588 18.969 7.17503 18.1579 6.96624V4.88829C18.1578 4.54131 18.0618 4.20108 17.8805 3.90491C17.6991 3.60874 17.4395 3.36807 17.1301 3.20932C16.8206 3.05057 16.4733 2.97986 16.1262 3.00495C15.779 3.03003 15.4456 3.14995 15.1623 3.35155L10.2758 6.83212H4.89474C4.39222 6.83212 3.91029 7.03115 3.55496 7.38541C3.19962 7.73968 3 8.22017 3 8.72117V12.4993C3 13.0003 3.19962 13.4808 3.55496 13.835C3.91029 14.1893 4.39222 14.3883 4.89474 14.3883V19.111C4.89474 19.612 5.09436 20.0924 5.44969 20.4467C5.80502 20.801 6.28696 21 6.78947 21H7.73684C8.23936 21 8.72129 20.801 9.07662 20.4467C9.43196 20.0924 9.63158 19.612 9.63158 19.111V14.3883H10.2758L15.1614 17.868C15.4446 18.0698 15.7782 18.19 16.1255 18.2152C16.4727 18.2404 16.8202 18.1698 17.1298 18.011C17.4395 17.8522 17.6992 17.6114 17.8806 17.3151C18.0619 17.0188 18.1579 16.6783 18.1579 16.3312V14.2533C18.9688 14.0445 19.6875 13.5738 20.2017 12.9147C20.7159 12.2556 20.9967 11.4452 21 10.6102ZM4.89474 8.72117H9.63158V12.4993H4.89474V8.72117ZM7.73684 19.111H6.78947V14.3883H7.73684V19.111ZM16.2632 16.3312L11.5263 12.9574V8.26213L16.2632 4.88357V16.3312ZM18.1579 12.2452V8.97525C18.4455 9.14118 18.6842 9.37959 18.8502 9.66656C19.0162 9.95352 19.1035 10.279 19.1035 10.6102C19.1035 10.9415 19.0162 11.2669 18.8502 11.5539C18.6842 11.8409 18.4455 12.0793 18.1579 12.2452Z" fill="#EFBB00"></path></svg>