<svg width="24" height="24" viewBox="0 0 24 24" fill="none" xmlns="http://www.w3.org/2000/svg"><path d="M15.75 9.75C12.45 9.75 9.75 12.45 9.75 15.75C9.75 19.05 12.45 21.75 15.75 21.75C19.05 21.75 21.75 19.05 21.75 15.75C21.75 12.45 19.05 9.75 15.75 9.75ZM14.25 19.875C12.87 19.395 12.105 18.75 11.625 17.31L13.95 16.53V16.95C13.95 17.31 14.19 17.55 14.55 17.55H14.97L14.25 19.875ZM17.25 19.875L16.53 17.55H16.95C17.31 17.55 17.55 17.31 17.55 16.95V16.53L19.875 17.31C19.395 18.69 18.63 19.395 17.25 19.875ZM17.55 14.97V14.55C17.55 14.19 17.31 13.95 16.95 13.95H14.55C14.19 13.95 13.95 14.19 13.95 14.55V14.97L11.625 14.55C12.285 12.69 13.65 11.25 15.75 11.25C17.85 11.25 19.215 12.765 19.875 14.625L17.55 14.97Z" fill="#EFBB00"></path><path fill-rule="evenodd" clip-rule="evenodd" d="M5.99999 10.6753C6.74002 11.1958 7.61005 11.4736 8.50006 11.4736C8.91822 11.4731 9.33032 11.4114 9.72558 11.2932C10.4346 10.3383 11.3646 9.55627 12.4386 9.02415C12.8028 8.32987 12.9992 7.544 13.0001 6.73672C13.0001 5.79986 12.7361 4.88404 12.2417 4.10507C11.7472 3.3261 11.0444 2.71897 10.2221 2.36045C9.39987 2.00193 8.49507 1.90813 7.62216 2.0909C6.74924 2.27367 5.94742 2.72481 5.31808 3.38727C4.68874 4.04973 4.26016 4.89375 4.08653 5.81261C3.91289 6.73147 4.00201 7.68389 4.3426 8.54943C4.6832 9.41498 5.25997 10.1548 5.99999 10.6753ZM8.98144 12.5262H7.00006C5.67447 12.5279 4.40362 13.0829 3.46628 14.0696C2.52894 15.0563 2.00165 16.394 2.00006 17.7894V20.9472C2.00006 21.2264 2.10542 21.4942 2.29295 21.6916C2.48049 21.889 2.73484 21.9999 3.00006 21.9999H11.6139C10.7797 21.4451 10.0617 20.7281 9.50582 19.8946H4.00006V17.7894C4.00006 16.9518 4.31613 16.1486 4.87874 15.5564C5.44135 14.9642 6.20441 14.6315 7.00006 14.6315H8.33363C8.44562 13.8891 8.66727 13.1816 8.98144 12.5262ZM7.11114 4.54864C7.52226 4.25948 8.00561 4.10514 8.50006 4.10514C9.1631 4.10514 9.79899 4.3824 10.2678 4.87591C10.7367 5.36943 11.0001 6.03878 11.0001 6.73672C11.0001 7.2572 10.8534 7.76599 10.5787 8.19875C10.304 8.63151 9.91359 8.96881 9.45677 9.16798C8.99996 9.36716 8.49729 9.41928 8.01233 9.31774C7.52738 9.2162 7.08193 8.96556 6.73229 8.59753C6.38266 8.2295 6.14456 7.76059 6.0481 7.25012C5.95163 6.73964 6.00114 6.21052 6.19036 5.72966C6.37958 5.2488 6.70001 4.83781 7.11114 4.54864Z" fill="#EFBB00"></path></svg>