<svg width="40" height="40" viewBox="0 0 40 40" fill="none" xmlns="http://www.w3.org/2000/svg">
<rect width="40" height="40" rx="8" fill="#FFCA0A"/>
<path d="M24.4636 12.1826H32V9.5001H24.4636C23.3529 9.49504 22.2633 9.80088 21.3201 10.3824C20.377 10.964 19.6186 11.7976 19.1322 12.7875C18.9185 13.2192 18.7578 13.6748 18.6536 14.1444C18.6529 14.1479 18.6529 14.1514 18.6536 14.1549C18.6416 14.2037 18.6318 14.2505 18.6233 14.2993C18.6149 14.3482 18.6079 14.3865 18.5994 14.4305C18.5945 14.4542 18.591 14.4779 18.5874 14.5002C18.5825 14.5372 18.5776 14.5742 18.572 14.6112C18.5663 14.6481 18.56 14.7054 18.5537 14.7507C18.5473 14.7961 18.5431 14.8484 18.5403 14.8951C18.5375 14.9419 18.5333 14.9649 18.5311 15.0033C18.5311 15.0284 18.5311 15.0549 18.5262 15.08C18.5262 15.1288 18.5262 15.1777 18.5213 15.2286C18.5164 15.2795 18.5178 15.3374 18.5178 15.3933C18.5178 15.477 18.5178 15.5593 18.5227 15.6416C18.5227 15.6842 18.5283 15.726 18.5297 15.7679C18.5311 15.8098 18.5368 15.8621 18.5417 15.9074C18.5466 15.9528 18.5487 15.9772 18.5516 16.017C18.5544 16.0567 18.5621 16.0979 18.567 16.1363C18.5741 16.1865 18.5804 16.2353 18.5874 16.2828C18.5924 16.3149 18.5973 16.3449 18.6029 16.377L18.6177 16.4642C18.6248 16.4963 18.6318 16.5297 18.6381 16.5618C18.6522 16.6274 18.6656 16.6909 18.6825 16.7565C18.6895 16.7837 18.6958 16.8109 18.7029 16.8395C18.7099 16.8681 18.7184 16.896 18.7247 16.9232C18.731 16.9504 18.7416 16.9839 18.75 17.0125C18.7585 17.0411 18.7641 17.0593 18.7704 17.0823C18.7873 17.1346 18.8028 17.1849 18.8218 17.2351L18.8619 17.3544C19.074 17.9383 19.3768 18.4858 19.7593 18.9771L27.9411 29.5H32V15.3451H24.1293L26.2161 18.029H29.2945V26.8433L26.8382 23.6822L26.663 23.4603L21.9052 17.3418C21.5364 16.868 21.3089 16.3012 21.2485 15.7057C21.1882 15.1102 21.2974 14.5099 21.5637 13.9728C21.8301 13.4357 22.243 12.9833 22.7555 12.6671C23.2681 12.3508 23.8598 12.1832 24.4636 12.1833V12.1826Z" fill="#755E5E"/>
<path d="M24.4636 12.1826H32V9.5001H24.4636C23.3529 9.49504 22.2633 9.80088 21.3201 10.3824C20.377 10.964 19.6186 11.7976 19.1322 12.7875C18.9185 13.2192 18.7578 13.6748 18.6536 14.1444C18.6529 14.1479 18.6529 14.1514 18.6536 14.1549C18.6416 14.2037 18.6318 14.2505 18.6233 14.2993C18.6149 14.3482 18.6079 14.3865 18.5994 14.4305C18.5945 14.4542 18.591 14.4779 18.5874 14.5002C18.5825 14.5372 18.5776 14.5742 18.572 14.6112C18.5663 14.6481 18.56 14.7054 18.5537 14.7507C18.5473 14.7961 18.5431 14.8484 18.5403 14.8951C18.5375 14.9419 18.5333 14.9649 18.5311 15.0033C18.5311 15.0284 18.5311 15.0549 18.5262 15.08C18.5262 15.1288 18.5262 15.1777 18.5213 15.2286C18.5164 15.2795 18.5178 15.3374 18.5178 15.3933C18.5178 15.477 18.5178 15.5593 18.5227 15.6416C18.5227 15.6842 18.5283 15.726 18.5297 15.7679C18.5311 15.8098 18.5368 15.8621 18.5417 15.9074C18.5466 15.9528 18.5487 15.9772 18.5516 16.017C18.5544 16.0567 18.5621 16.0979 18.567 16.1363C18.5741 16.1865 18.5804 16.2353 18.5874 16.2828C18.5924 16.3149 18.5973 16.3449 18.6029 16.377L18.6177 16.4642C18.6248 16.4963 18.6318 16.5297 18.6381 16.5618C18.6522 16.6274 18.6656 16.6909 18.6825 16.7565C18.6895 16.7837 18.6958 16.8109 18.7029 16.8395C18.7099 16.8681 18.7184 16.896 18.7247 16.9232C18.731 16.9504 18.7416 16.9839 18.75 17.0125C18.7585 17.0411 18.7641 17.0593 18.7704 17.0823C18.7873 17.1346 18.8028 17.1849 18.8218 17.2351L18.8619 17.3544C19.074 17.9383 19.3768 18.4858 19.7593 18.9771L27.9411 29.5H32V15.3451H24.1293L26.2161 18.029H29.2945V26.8433L26.8382 23.6822L26.663 23.4603L21.9052 17.3418C21.5364 16.868 21.3089 16.3012 21.2485 15.7057C21.1882 15.1102 21.2974 14.5099 21.5637 13.9728C21.8301 13.4357 22.243 12.9833 22.7555 12.6671C23.2681 12.3508 23.8598 12.1832 24.4636 12.1833V12.1826Z" fill="#111928"/>
<path d="M16.2325 17.3544C16.2191 17.3146 16.2057 17.2741 16.1917 17.2351C16.1734 17.1848 16.1579 17.1346 16.141 17.0823L16.1206 17.0125C16.1121 16.9839 16.1037 16.9532 16.0952 16.9232C16.0868 16.8932 16.0798 16.8674 16.0734 16.8395C16.0671 16.8116 16.0594 16.7837 16.053 16.7565C16.0361 16.6909 16.0221 16.6274 16.0087 16.5618C16.0016 16.5297 15.9953 16.4962 15.9883 16.4642C15.9812 16.4321 15.9784 16.4055 15.9728 16.3769L15.958 16.2828C15.951 16.2353 15.9446 16.1865 15.9376 16.1363C15.9327 16.0979 15.927 16.0574 15.9221 16.017C15.9172 15.9765 15.9158 15.9472 15.9123 15.9074C15.9087 15.8677 15.9038 15.8153 15.9003 15.7679C15.8968 15.7204 15.8968 15.6842 15.8933 15.6416C15.8897 15.5593 15.8883 15.477 15.8883 15.3932C15.8883 15.3374 15.8883 15.2823 15.8918 15.2286C15.8954 15.1749 15.8918 15.1288 15.8968 15.08C15.8968 15.0549 15.9003 15.0284 15.9017 15.0032C15.9017 14.9677 15.9066 14.9335 15.9101 14.8951C15.9137 14.8567 15.9186 14.7995 15.9242 14.7507C15.9299 14.7019 15.9355 14.6579 15.9425 14.6112C15.9496 14.5644 15.9531 14.5372 15.958 14.5002C15.9615 14.4786 15.9643 14.4549 15.97 14.4305C15.9784 14.3865 15.9848 14.3433 15.9932 14.2993C16.0016 14.2554 16.0122 14.2037 16.0242 14.1549C16.0235 14.1514 16.0235 14.1479 16.0242 14.1444C16.1281 13.6747 16.2888 13.2191 16.5028 12.7875C16.9889 11.7982 17.7467 10.9649 18.6892 10.3833C19.6316 9.80183 20.7205 9.49568 21.8306 9.50008H19.2026C18.0925 9.49585 17.0037 9.80207 16.0613 10.3836C15.1188 10.9651 14.361 11.7983 13.8747 12.7875C13.6607 13.2191 13.5 13.6747 13.3961 14.1444C13.3954 14.1479 13.3954 14.1514 13.3961 14.1549C13.3842 14.2037 13.3736 14.2505 13.3652 14.2993C13.3567 14.3481 13.3497 14.3865 13.3412 14.4305C13.3363 14.4542 13.3328 14.4779 13.33 14.5002C13.3243 14.5372 13.3194 14.5742 13.3145 14.6112C13.3096 14.6481 13.3025 14.7053 13.2976 14.7507C13.2927 14.796 13.287 14.8484 13.2821 14.8951C13.2772 14.9419 13.2772 14.9649 13.2737 15.0032C13.2737 15.0284 13.2701 15.0549 13.2701 15.08C13.2666 15.1288 13.2652 15.1777 13.2638 15.2286C13.2624 15.2795 13.2603 15.3374 13.2603 15.3932C13.2603 15.477 13.2638 15.5593 13.2666 15.6416C13.2666 15.6842 13.2701 15.726 13.2737 15.7679C13.2772 15.8097 13.2807 15.8621 13.2835 15.9074L13.2906 16.0163C13.2955 16.0567 13.3004 16.0972 13.306 16.1356C13.3124 16.1858 13.3194 16.2346 13.3265 16.2821C13.3314 16.3142 13.3363 16.3442 13.3412 16.3762C13.3462 16.4083 13.3518 16.4349 13.3567 16.4635C13.3616 16.4921 13.3701 16.529 13.3771 16.5611C13.3905 16.6267 13.4039 16.6902 13.4215 16.7558C13.4278 16.783 13.4348 16.8102 13.4412 16.8388C13.4475 16.8674 13.4567 16.8953 13.4637 16.9225C13.4707 16.9497 13.4806 16.9832 13.489 17.0118C13.4975 17.0404 13.5045 17.0586 13.5108 17.0816C13.5263 17.1339 13.5418 17.1841 13.5601 17.2344L13.6009 17.3537C13.8127 17.9377 14.1155 18.4853 14.4983 18.9764L22.6787 29.5H25.3096L17.1299 18.9771C16.7471 18.486 16.4443 17.9384 16.2325 17.3544Z" fill="#755E5E"/>
<path d="M16.2325 17.3544C16.2191 17.3146 16.2057 17.2741 16.1917 17.2351C16.1734 17.1848 16.1579 17.1346 16.141 17.0823L16.1206 17.0125C16.1121 16.9839 16.1037 16.9532 16.0952 16.9232C16.0868 16.8932 16.0798 16.8674 16.0734 16.8395C16.0671 16.8116 16.0594 16.7837 16.053 16.7565C16.0361 16.6909 16.0221 16.6274 16.0087 16.5618C16.0016 16.5297 15.9953 16.4962 15.9883 16.4642C15.9812 16.4321 15.9784 16.4055 15.9728 16.3769L15.958 16.2828C15.951 16.2353 15.9446 16.1865 15.9376 16.1363C15.9327 16.0979 15.927 16.0574 15.9221 16.017C15.9172 15.9765 15.9158 15.9472 15.9123 15.9074C15.9087 15.8677 15.9038 15.8153 15.9003 15.7679C15.8968 15.7204 15.8968 15.6842 15.8933 15.6416C15.8897 15.5593 15.8883 15.477 15.8883 15.3932C15.8883 15.3374 15.8883 15.2823 15.8918 15.2286C15.8954 15.1749 15.8918 15.1288 15.8968 15.08C15.8968 15.0549 15.9003 15.0284 15.9017 15.0032C15.9017 14.9677 15.9066 14.9335 15.9101 14.8951C15.9137 14.8567 15.9186 14.7995 15.9242 14.7507C15.9299 14.7019 15.9355 14.6579 15.9425 14.6112C15.9496 14.5644 15.9531 14.5372 15.958 14.5002C15.9615 14.4786 15.9643 14.4549 15.97 14.4305C15.9784 14.3865 15.9848 14.3433 15.9932 14.2993C16.0016 14.2554 16.0122 14.2037 16.0242 14.1549C16.0235 14.1514 16.0235 14.1479 16.0242 14.1444C16.1281 13.6747 16.2888 13.2191 16.5028 12.7875C16.9889 11.7982 17.7467 10.9649 18.6892 10.3833C19.6316 9.80183 20.7205 9.49568 21.8306 9.50008H19.2026C18.0925 9.49585 17.0037 9.80207 16.0613 10.3836C15.1188 10.9651 14.361 11.7983 13.8747 12.7875C13.6607 13.2191 13.5 13.6747 13.3961 14.1444C13.3954 14.1479 13.3954 14.1514 13.3961 14.1549C13.3842 14.2037 13.3736 14.2505 13.3652 14.2993C13.3567 14.3481 13.3497 14.3865 13.3412 14.4305C13.3363 14.4542 13.3328 14.4779 13.33 14.5002C13.3243 14.5372 13.3194 14.5742 13.3145 14.6112C13.3096 14.6481 13.3025 14.7053 13.2976 14.7507C13.2927 14.796 13.287 14.8484 13.2821 14.8951C13.2772 14.9419 13.2772 14.9649 13.2737 15.0032C13.2737 15.0284 13.2701 15.0549 13.2701 15.08C13.2666 15.1288 13.2652 15.1777 13.2638 15.2286C13.2624 15.2795 13.2603 15.3374 13.2603 15.3932C13.2603 15.477 13.2638 15.5593 13.2666 15.6416C13.2666 15.6842 13.2701 15.726 13.2737 15.7679C13.2772 15.8097 13.2807 15.8621 13.2835 15.9074L13.2906 16.0163C13.2955 16.0567 13.3004 16.0972 13.306 16.1356C13.3124 16.1858 13.3194 16.2346 13.3265 16.2821C13.3314 16.3142 13.3363 16.3442 13.3412 16.3762C13.3462 16.4083 13.3518 16.4349 13.3567 16.4635C13.3616 16.4921 13.3701 16.529 13.3771 16.5611C13.3905 16.6267 13.4039 16.6902 13.4215 16.7558C13.4278 16.783 13.4348 16.8102 13.4412 16.8388C13.4475 16.8674 13.4567 16.8953 13.4637 16.9225C13.4707 16.9497 13.4806 16.9832 13.489 17.0118C13.4975 17.0404 13.5045 17.0586 13.5108 17.0816C13.5263 17.1339 13.5418 17.1841 13.5601 17.2344L13.6009 17.3537C13.8127 17.9377 14.1155 18.4853 14.4983 18.9764L22.6787 29.5H25.3096L17.1299 18.9771C16.7471 18.486 16.4443 17.9384 16.2325 17.3544Z" fill="#111928"/>
<path d="M10.968 17.3544C10.9539 17.3146 10.9405 17.2741 10.9272 17.2351C10.9082 17.1848 10.8934 17.1346 10.8765 17.0823C10.8694 17.0586 10.8624 17.0355 10.8561 17.0125C10.8497 16.9895 10.8392 16.9532 10.8307 16.9232C10.8223 16.8932 10.8153 16.8674 10.8082 16.8395C10.8012 16.8116 10.7948 16.7837 10.7878 16.7565C10.7709 16.6909 10.7575 16.6274 10.7442 16.5618C10.7371 16.5297 10.7301 16.4962 10.7238 16.4642C10.7174 16.4321 10.7132 16.4055 10.7083 16.3769C10.7033 16.3483 10.6984 16.3149 10.6928 16.2828C10.6865 16.2353 10.6794 16.1865 10.6724 16.1362C10.6674 16.0979 10.6625 16.0574 10.6576 16.0169L10.647 15.9074C10.6421 15.8621 10.6386 15.8153 10.6351 15.7679C10.6316 15.7204 10.6351 15.6842 10.6287 15.6416C10.6252 15.5593 10.6238 15.477 10.6238 15.3932C10.6238 15.3374 10.6238 15.2823 10.6238 15.2286C10.6238 15.1749 10.6273 15.1288 10.6294 15.08C10.6294 15.0549 10.6294 15.0284 10.6344 15.0032C10.6344 14.9677 10.6393 14.9335 10.6428 14.8951C10.6463 14.8567 10.6513 14.7995 10.6562 14.7507C10.6611 14.7019 10.6682 14.6579 10.6752 14.6112L10.69 14.5002C10.6935 14.4786 10.697 14.4549 10.7019 14.4305C10.7104 14.3865 10.7174 14.3433 10.7259 14.2993C10.7343 14.2554 10.7442 14.2037 10.7561 14.1549C10.7551 14.1515 10.7551 14.1478 10.7561 14.1444C10.8598 13.6747 11.0202 13.2191 11.234 12.7875C11.721 11.797 12.4802 10.963 13.4242 10.3814C14.3683 9.79986 15.4588 9.49435 16.5703 9.50008H13.9395C12.8293 9.49588 11.7404 9.8021 10.7979 10.3836C9.85536 10.9651 9.09736 11.7983 8.61091 12.7875C8.39722 13.2192 8.23654 13.6748 8.13232 14.1444C8.13163 14.1479 8.13163 14.1514 8.13232 14.1549C8.12035 14.2037 8.1105 14.2505 8.10205 14.2993C8.09361 14.3481 8.08657 14.3865 8.07812 14.4305C8.0732 14.4542 8.06968 14.4779 8.06616 14.5002C8.06123 14.5372 8.05631 14.5742 8.05067 14.6112C8.04504 14.6481 8.03941 14.7053 8.03378 14.7507C8.02815 14.796 8.02393 14.8484 8.019 14.8951C8.01408 14.9418 8.01337 14.9649 8.01056 15.0032C8.01056 15.0284 8.01056 15.0549 8.01056 15.08C8.00704 15.1288 8.00493 15.1777 8.00352 15.2286C8.00211 15.2795 8 15.3374 8 15.3932C8 15.477 8.00352 15.5593 8.00704 15.6416C8.00704 15.6842 8.01056 15.726 8.01408 15.7679C8.0176 15.8097 8.02041 15.8621 8.02393 15.9074C8.02745 15.9528 8.03097 15.9772 8.03378 16.0169C8.0366 16.0567 8.04434 16.0979 8.04927 16.1362C8.05631 16.1865 8.06264 16.2353 8.06968 16.2828C8.07461 16.3149 8.08024 16.3449 8.08516 16.3769L8.09994 16.4642C8.10698 16.4962 8.11402 16.5297 8.12035 16.5618C8.13443 16.6274 8.1478 16.6909 8.16469 16.7565C8.17173 16.7837 8.17806 16.8109 8.1851 16.8395C8.19214 16.8681 8.20059 16.896 8.20692 16.9232C8.21326 16.9504 8.22381 16.9839 8.23226 17.0125C8.24071 17.0411 8.24774 17.0593 8.25478 17.0823C8.26956 17.1346 8.28504 17.1848 8.30405 17.2351C8.31742 17.2741 8.33079 17.3146 8.34487 17.3544C8.55638 17.9385 8.8592 18.4861 9.24223 18.9771L17.417 29.5H20.0472L11.8682 18.9771C11.4841 18.4863 11.1804 17.9387 10.968 17.3544Z" fill="#755E5E"/>
<path d="M10.968 17.3544C10.9539 17.3146 10.9405 17.2741 10.9272 17.2351C10.9082 17.1848 10.8934 17.1346 10.8765 17.0823C10.8694 17.0586 10.8624 17.0355 10.8561 17.0125C10.8497 16.9895 10.8392 16.9532 10.8307 16.9232C10.8223 16.8932 10.8153 16.8674 10.8082 16.8395C10.8012 16.8116 10.7948 16.7837 10.7878 16.7565C10.7709 16.6909 10.7575 16.6274 10.7442 16.5618C10.7371 16.5297 10.7301 16.4962 10.7238 16.4642C10.7174 16.4321 10.7132 16.4055 10.7083 16.3769C10.7033 16.3483 10.6984 16.3149 10.6928 16.2828C10.6865 16.2353 10.6794 16.1865 10.6724 16.1362C10.6674 16.0979 10.6625 16.0574 10.6576 16.0169L10.647 15.9074C10.6421 15.8621 10.6386 15.8153 10.6351 15.7679C10.6316 15.7204 10.6351 15.6842 10.6287 15.6416C10.6252 15.5593 10.6238 15.477 10.6238 15.3932C10.6238 15.3374 10.6238 15.2823 10.6238 15.2286C10.6238 15.1749 10.6273 15.1288 10.6294 15.08C10.6294 15.0549 10.6294 15.0284 10.6344 15.0032C10.6344 14.9677 10.6393 14.9335 10.6428 14.8951C10.6463 14.8567 10.6513 14.7995 10.6562 14.7507C10.6611 14.7019 10.6682 14.6579 10.6752 14.6112L10.69 14.5002C10.6935 14.4786 10.697 14.4549 10.7019 14.4305C10.7104 14.3865 10.7174 14.3433 10.7259 14.2993C10.7343 14.2554 10.7442 14.2037 10.7561 14.1549C10.7551 14.1515 10.7551 14.1478 10.7561 14.1444C10.8598 13.6747 11.0202 13.2191 11.234 12.7875C11.721 11.797 12.4802 10.963 13.4242 10.3814C14.3683 9.79986 15.4588 9.49435 16.5703 9.50008H13.9395C12.8293 9.49588 11.7404 9.8021 10.7979 10.3836C9.85536 10.9651 9.09736 11.7983 8.61091 12.7875C8.39722 13.2192 8.23654 13.6748 8.13232 14.1444C8.13163 14.1479 8.13163 14.1514 8.13232 14.1549C8.12035 14.2037 8.1105 14.2505 8.10205 14.2993C8.09361 14.3481 8.08657 14.3865 8.07812 14.4305C8.0732 14.4542 8.06968 14.4779 8.06616 14.5002C8.06123 14.5372 8.05631 14.5742 8.05067 14.6112C8.04504 14.6481 8.03941 14.7053 8.03378 14.7507C8.02815 14.796 8.02393 14.8484 8.019 14.8951C8.01408 14.9418 8.01337 14.9649 8.01056 15.0032C8.01056 15.0284 8.01056 15.0549 8.01056 15.08C8.00704 15.1288 8.00493 15.1777 8.00352 15.2286C8.00211 15.2795 8 15.3374 8 15.3932C8 15.477 8.00352 15.5593 8.00704 15.6416C8.00704 15.6842 8.01056 15.726 8.01408 15.7679C8.0176 15.8097 8.02041 15.8621 8.02393 15.9074C8.02745 15.9528 8.03097 15.9772 8.03378 16.0169C8.0366 16.0567 8.04434 16.0979 8.04927 16.1362C8.05631 16.1865 8.06264 16.2353 8.06968 16.2828C8.07461 16.3149 8.08024 16.3449 8.08516 16.3769L8.09994 16.4642C8.10698 16.4962 8.11402 16.5297 8.12035 16.5618C8.13443 16.6274 8.1478 16.6909 8.16469 16.7565C8.17173 16.7837 8.17806 16.8109 8.1851 16.8395C8.19214 16.8681 8.20059 16.896 8.20692 16.9232C8.21326 16.9504 8.22381 16.9839 8.23226 17.0125C8.24071 17.0411 8.24774 17.0593 8.25478 17.0823C8.26956 17.1346 8.28504 17.1848 8.30405 17.2351C8.31742 17.2741 8.33079 17.3146 8.34487 17.3544C8.55638 17.9385 8.8592 18.4861 9.24223 18.9771L17.417 29.5H20.0472L11.8682 18.9771C11.4841 18.4863 11.1804 17.9387 10.968 17.3544Z" fill="#111928"/>
</svg>